<svg viewBox="0 0 1000 700" xmlns="http://www.w3.org/2000/svg">
  <!-- Background -->
  <rect width="1000" height="700" fill="#f8f9fa"/>

  <!-- Title -->
  <text x="500" y="30" text-anchor="middle" font-size="24" font-weight="bold" fill="#212529">Zen AI Pentest Architecture</text>

  <!-- User Interface Layer -->
  <rect x="50" y="60" width="280" height="100" rx="10" fill="#e3f2fd" stroke="#1976d2" stroke-width="2"/>
  <text x="190" y="85" text-anchor="middle" font-size="14" font-weight="bold" fill="#1565c0">User Interface Layer</text>
  <rect x="70" y="100" width="70" height="40" rx="5" fill="#fff" stroke="#1976d2"/>
  <text x="105" y="125" text-anchor="middle" font-size="11" fill="#1565c0">CLI</text>
  <rect x="155" y="100" width="70" height="40" rx="5" fill="#fff" stroke="#1976d2"/>
  <text x="190" y="125" text-anchor="middle" font-size="11" fill="#1565c0">REST API</text>
  <rect x="240" y="100" width="70" height="40" rx="5" fill="#fff" stroke="#1976d2"/>
  <text x="275" y="125" text-anchor="middle" font-size="11" fill="#1565c0">Web UI</text>

  <!-- Core Engine -->
  <rect x="350" y="60" width="300" height="120" rx="10" fill="#fff3e0" stroke="#f57c00" stroke-width="2"/>
  <text x="500" y="85" text-anchor="middle" font-size="14" font-weight="bold" fill="#e65100">Core Engine</text>
  <rect x="370" y="100" width="120" height="30" rx="5" fill="#fff" stroke="#f57c00"/>
  <text x="430" y="120" text-anchor="middle" font-size="11" fill="#e65100">Agent Orchestrator</text>
  <rect x="510" y="100" width="120" height="30" rx="5" fill="#fff" stroke="#f57c00"/>
  <text x="570" y="120" text-anchor="middle" font-size="11" fill="#e65100">State Machine</text>
  <rect x="370" y="140" width="120" height="30" rx="5" fill="#fff" stroke="#f57c00"/>
  <text x="430" y="160" text-anchor="middle" font-size="11" fill="#e65100">Memory System</text>
  <rect x="510" y="140" width="120" height="30" rx="5" fill="#fff" stroke="#f57c00"/>
  <text x="570" y="160" text-anchor="middle" font-size="11" fill="#e65100">Risk Engine</text>

  <!-- AI Agents -->
  <rect x="50" y="200" width="280" height="140" rx="10" fill="#e8f5e9" stroke="#388e3c" stroke-width="2"/>
  <text x="190" y="225" text-anchor="middle" font-size="14" font-weight="bold" fill="#2e7d32">AI Agents</text>
  <rect x="70" y="245" width="110" height="35" rx="5" fill="#fff" stroke="#388e3c"/>
  <text x="125" y="267" text-anchor="middle" font-size="10" fill="#2e7d32">Reconnaissance</text>
  <rect x="200" y="245" width="110" height="35" rx="5" fill="#fff" stroke="#388e3c"/>
  <text x="255" y="267" text-anchor="middle" font-size="10" fill="#2e7d32">Vulnerability</text>
  <rect x="70" y="290" width="110" height="35" rx="5" fill="#fff" stroke="#388e3c"/>
  <text x="125" y="312" text-anchor="middle" font-size="10" fill="#2e7d32">Exploit Agent</text>
  <rect x="200" y="290" width="110" height="35" rx="5" fill="#fff" stroke="#388e3c"/>
  <text x="255" y="312" text-anchor="middle" font-size="10" fill="#2e7d32">Report Agent</text>

  <!-- Tool Integration -->
  <rect x="50" y="360" width="280" height="100" rx="10" fill="#fce4ec" stroke="#c2185b" stroke-width="2"/>
  <text x="190" y="385" text-anchor="middle" font-size="14" font-weight="bold" fill="#ad1457">Tool Integration</text>
  <rect x="70" y="400" width="50" height="30" rx="5" fill="#fff" stroke="#c2185b"/>
  <text x="95" y="420" text-anchor="middle" font-size="10" fill="#ad1457">Nmap</text>
  <rect x="130" y="400" width="70" height="30" rx="5" fill="#fff" stroke="#c2185b"/>
  <text x="165" y="420" text-anchor="middle" font-size="10" fill="#ad1457">Gobuster</text>
  <rect x="210" y="400" width="50" height="30" rx="5" fill="#fff" stroke="#c2185b"/>
  <text x="235" y="420" text-anchor="middle" font-size="10" fill="#ad1457">SQLMap</text>
  <rect x="70" y="440" width="80" height="30" rx="5" fill="#fff" stroke="#c2185b"/>
  <text x="110" y="458" text-anchor="middle" font-size="9" fill="#ad1457">Metasploit</text>
  <rect x="160" y="440" width="100" height="30" rx="5" fill="#fff" stroke="#c2185b"/>
  <text x="210" y="458" text-anchor="middle" font-size="9" fill="#ad1457">Custom Tools</text>

  <!-- External APIs -->
  <rect x="670" y="60" width="280" height="120" rx="10" fill="#f3e5f5" stroke="#7b1fa2" stroke-width="2"/>
  <text x="810" y="85" text-anchor="middle" font-size="14" font-weight="bold" fill="#6a1b9a">External APIs</text>
  <rect x="690" y="100" width="70" height="35" rx="5" fill="#fff" stroke="#7b1fa2"/>
  <text x="725" y="122" text-anchor="middle" font-size="10" fill="#6a1b9a">OpenAI</text>
  <rect x="775" y="100" width="80" height="35" rx="5" fill="#fff" stroke="#7b1fa2"/>
  <text x="815" y="122" text-anchor="middle" font-size="10" fill="#6a1b9a">Anthropic</text>
  <rect x="690" y="145" width="70" height="35" rx="5" fill="#fff" stroke="#7b1fa2"/>
  <text x="725" y="165" text-anchor="middle" font-size="10" fill="#6a1b9a">Ollama</text>
  <rect x="775" y="145" width="155" height="35" rx="5" fill="#fff" stroke="#7b1fa2"/>
  <text x="852" y="165" text-anchor="middle" font-size="9" fill="#6a1b9a">Threat Intelligence</text>

  <!-- Data Storage -->
  <rect x="670" y="200" width="280" height="140" rx="10" fill="#e0f2f1" stroke="#00796b" stroke-width="2"/>
  <text x="810" y="225" text-anchor="middle" font-size="14" font-weight="bold" fill="#00695c">Data Storage</text>
  <rect x="690" y="245" width="110" height="35" rx="5" fill="#fff" stroke="#00796b"/>
  <text x="745" y="267" text-anchor="middle" font-size="10" fill="#00695c">Evidence</text>
  <rect x="820" y="245" width="110" height="35" rx="5" fill="#fff" stroke="#00796b"/>
  <text x="875" y="267" text-anchor="middle" font-size="10" fill="#00695c">Audit Logs</text>
  <rect x="690" y="290" width="110" height="35" rx="5" fill="#fff" stroke="#00796b"/>
  <text x="745" y="312" text-anchor="middle" font-size="10" fill="#00695c">Reports</text>
  <rect x="820" y="290" width="110" height="35" rx="5" fill="#fff" stroke="#00796b"/>
  <text x="875" y="312" text-anchor="middle" font-size="10" fill="#00695c">CVE Database</text>

  <!-- Arrows -->
  <!-- UI to Core -->
  <line x1="330" y1="110" x2="350" y2="110" stroke="#333" stroke-width="2" marker-end="url(#arrowhead)"/>

  <!-- Core to Agents -->
  <line x1="350" y1="180" x2="330" y2="260" stroke="#333" stroke-width="2" marker-end="url(#arrowhead)"/>

  <!-- Agents to Tools -->
  <line x1="125" y1="340" x2="125" y2="360" stroke="#333" stroke-width="2" marker-end="url(#arrowhead)"/>

  <!-- Core to External -->
  <line x1="650" y1="120" x2="670" y2="120" stroke="#333" stroke-width="2" marker-end="url(#arrowhead)"/>

  <!-- Core to Storage -->
  <line x1="650" y1="200" x2="670" y2="260" stroke="#333" stroke-width="2" marker-end="url(#arrowhead)"/>

  <!-- Arrow marker -->
  <defs>
    <marker id="arrowhead" markerWidth="10" markerHeight="7" refX="9" refY="3.5" orient="auto">
      <polygon points="0 0, 10 3.5, 0 7" fill="#333"/>
    </marker>
  </defs>

  <!-- Legend -->
  <rect x="50" y="480" width="900" height="200" rx="10" fill="#fff" stroke="#ddd" stroke-width="1"/>
  <text x="500" y="510" text-anchor="middle" font-size="16" font-weight="bold" fill="#333">Data Flow</text>
  <text x="70" y="540" font-size="12" fill="#555">1. User input → API → Orchestrator</text>
  <text x="70" y="565" font-size="12" fill="#555">2. Orchestrator selects appropriate agent based on state</text>
  <text x="70" y="590" font-size="12" fill="#555">3. Agent uses security tools and AI consensus</text>
  <text x="70" y="615" font-size="12" fill="#555">4. Risk Engine validates findings with threat intelligence</text>
  <text x="70" y="640" font-size="12" fill="#555">5. Evidence collected, reports generated, audit trail maintained</text>
  <text x="70" y="665" font-size="12" fill="#555">6. Results presented via CLI, API, or Web UI</text>
</svg>
